# xmcd
#
# Track frame offsets: 
#        150
#        20528
#        40670
#        61347
#        75419
#        94035
#        119090
#        131254
#        158634
#        175759
#        194868
#        219062
#        241421
#        255694
#        279381
#        301322
#        324279
#        344339
#
# Disc length: 4787 seconds
#
# Revision: 1
# Processed by: cddbd v1.5.2PL0 Copyright (c) Steve Scherf et al.
# Submitted via: ExactAudioCopy v1.3
#
DISCID=f012b112
DTITLE=Various Artist - Akella Presents - vol.50 - Various Styles Of 
DTITLE=Blues  CD1
DYEAR=2015
DGENRE=Blues
TTITLE0=Big Mike Griffin - To Meet The Blues
TTITLE1=Terry Taylor - Fast Train
TTITLE2=Robin Trower - Someday Blues
TTITLE3=Eric Clapton and Friends - Lies
TTITLE4=Scott Ellison - Big Big Love
TTITLE5=Too Slim And The Taildraggers - Face Up
TTITLE6=Russell Morris (featuring Vika and Linda Bull) - Burning Rodney
TTITLE7=Stevie Cochran - My Love Is Alright
TTITLE8=Dana Gillespie - Blue Moves
TTITLE9=Keb' Mo' - That's Alright
TTITLE10=Kenny Neal - Whiskey Tears
TTITLE11=Selwyn Birchwood - Hoodoo Stew
TTITLE12=Cold Chisel - I Got Things To Do
TTITLE13=Mick Taylor - Secret Affair
TTITLE14=Tom Principato - It Must Have Been Some Kinda VooDoo Thing
TTITLE15=Tommy Shreve Band - You Got A Love
TTITLE16=Maurice John Vaughn - Nothing Left To Believe In
TTITLE17=Dr. Feelgood - Hunting Shooting Fishing
EXTD=
EXTT0=
EXTT1=
EXTT2=
EXTT3=
EXTT4=
EXTT5=
EXTT6=
EXTT7=
EXTT8=
EXTT9=
EXTT10=
EXTT11=
EXTT12=
EXTT13=
EXTT14=
EXTT15=
EXTT16=
EXTT17=
PLAYORDER=
